<?xml version="1.0" encoding="UTF-8"?>
<svg width="400" height="600" viewBox="0 0 400 600" fill="none" xmlns="http://www.w3.org/2000/svg">
  <!-- Head -->
  <circle cx="200" cy="120" r="60" fill="#E9C2A6" stroke="#1D1D1F" stroke-width="4"/>
  
  <!-- Hair -->
  <path d="M140 80 Q200 50 260 80 Q260 60 240 50 Q200 30 160 50 Q140 60 140 80" fill="#1D1D1F" stroke="#1D1D1F" stroke-width="4"/>
  
  <!-- Eyes -->
  <circle cx="185" cy="110" r="6" fill="#1D1D1F"/>
  <circle cx="215" cy="110" r="6" fill="#1D1D1F"/>
  
  <!-- Nose -->
  <ellipse cx="200" cy="125" rx="3" ry="5" fill="#C98E6B"/>
  
  <!-- Mouth -->
  <path d="M190 140 Q200 150 210 140" stroke="#1D1D1F" stroke-width="3" fill="none" stroke-linecap="round"/>
  
  <!-- Neck -->
  <rect x="185" y="180" width="30" height="25" fill="#E9C2A6" stroke="#1D1D1F" stroke-width="4"/>
  
  <!-- Body/Torso -->
  <rect x="150" y="205" width="100" height="150" rx="15" fill="#4F9CF9" stroke="#1D1D1F" stroke-width="4"/>
  
  <!-- Arms -->
  <!-- Left arm -->
  <rect x="110" y="220" width="25" height="80" rx="12" fill="#E9C2A6" stroke="#1D1D1F" stroke-width="4"/>
  <rect x="105" y="300" width="25" height="60" rx="12" fill="#E9C2A6" stroke="#1D1D1F" stroke-width="4"/>
  <!-- Left hand -->
  <circle cx="117" cy="370" r="12" fill="#E9C2A6" stroke="#1D1D1F" stroke-width="4"/>
  
  <!-- Right arm -->
  <rect x="265" y="220" width="25" height="80" rx="12" fill="#E9C2A6" stroke="#1D1D1F" stroke-width="4"/>
  <rect x="270" y="300" width="25" height="60" rx="12" fill="#E9C2A6" stroke="#1D1D1F" stroke-width="4"/>
  <!-- Right hand -->
  <circle cx="283" cy="370" r="12" fill="#E9C2A6" stroke="#1D1D1F" stroke-width="4"/>
  
  <!-- Legs -->
  <rect x="170" y="355" width="25" height="120" rx="12" fill="#2E2E30" stroke="#1D1D1F" stroke-width="4"/>
  <rect x="205" y="355" width="25" height="120" rx="12" fill="#2E2E30" stroke="#1D1D1F" stroke-width="4"/>
  
  <!-- Feet -->
  <ellipse cx="182" cy="485" rx="20" ry="12" fill="#1D1D1F" stroke="#1D1D1F" stroke-width="4"/>
  <ellipse cx="218" cy="485" rx="20" ry="12" fill="#1D1D1F" stroke="#1D1D1F" stroke-width="4"/>
  
  <!-- Fitness details -->
  <!-- Chest accent line -->
  <rect x="165" y="235" width="70" height="3" fill="#22C55E"/>
  
  <!-- Belt/waist accent -->
  <rect x="155" y="320" width="90" height="8" fill="#F59E0B" stroke="#1D1D1F" stroke-width="2"/>
  
  <!-- Arm muscles definition -->
  <ellipse cx="122" cy="250" rx="8" ry="15" fill="#C98E6B" opacity="0.6"/>
  <ellipse cx="278" cy="250" rx="8" ry="15" fill="#C98E6B" opacity="0.6"/>
</svg>
